<?xml version="1.0" encoding="UTF-8" standalone="no"?>
<!-- Created with Inkscape (http://www.inkscape.org/) -->

<svg
   width="128"
   height="128"
   viewBox="0 0 33.866666 33.866666"
   version="1.1"
   id="svg1"
   inkscape:version="1.3.2 (091e20ef0f, 2023-11-25, custom)"
   sodipodi:docname="ech-initial.svg"
   xml:space="preserve"
   inkscape:export-filename="ech-initial.png"
   inkscape:export-xdpi="56.207115"
   inkscape:export-ydpi="56.207115"
   xmlns:inkscape="http://www.inkscape.org/namespaces/inkscape"
   xmlns:sodipodi="http://sodipodi.sourceforge.net/DTD/sodipodi-0.dtd"
   xmlns="http://www.w3.org/2000/svg"
   xmlns:svg="http://www.w3.org/2000/svg"><sodipodi:namedview
     id="namedview1"
     pagecolor="#505050"
     bordercolor="#eeeeee"
     borderopacity="1"
     inkscape:showpageshadow="0"
     inkscape:pageopacity="0"
     inkscape:pagecheckerboard="0"
     inkscape:deskcolor="#505050"
     inkscape:document-units="mm"
     inkscape:zoom="4"
     inkscape:cx="-16"
     inkscape:cy="103.875"
     inkscape:window-width="3780"
     inkscape:window-height="2100"
     inkscape:window-x="60"
     inkscape:window-y="60"
     inkscape:window-maximized="1"
     inkscape:current-layer="g8" /><defs
     id="defs1"><rect
       x="-33.197676"
       y="-0.7340448"
       width="92.196168"
       height="48.263845"
       id="rect4" /></defs><g
     inkscape:label="Ebene 1"
     inkscape:groupmode="layer"
     id="layer1"><g
       style="display:none;fill:none;fill-opacity:1;stroke:currentColor;stroke-width:2;stroke-linecap:round;stroke-linejoin:round;stroke-opacity:1"
       id="g6"
       transform="matrix(1.4472807,0,0,1.4701957,-0.43868284,-0.93968226)"><rect
         width="18"
         height="11"
         x="3"
         y="11"
         rx="2"
         ry="2"
         id="rect8"
         style="display:inline;fill:#189f00;fill-opacity:1;stroke:currentColor;stroke-width:0.685545;stroke-linecap:round;stroke-linejoin:round;stroke-dasharray:none;stroke-opacity:1" /><rect
         width="18"
         height="11"
         x="3"
         y="11"
         rx="2"
         ry="2"
         id="rect1-6"
         style="display:inline;fill:#189f00;fill-opacity:1" /><path
         d="M 7,11 V 7 a 5,5 0 0 1 10,0 v 4"
         id="path1-3" /></g><g
       style="display:inline;fill:none;stroke:#bc8900;stroke-width:2;stroke-linecap:round;stroke-linejoin:round;stroke-opacity:1"
       id="g8"
       transform="matrix(1.4460803,0,0,1.4706165,-0.42396383,-0.94439055)"><path
         id="rect2"
         style="display:inline;fill:#000003;fill-opacity:0.27976337;stroke:#0089ff;stroke-width:0;stroke-linecap:square;stroke-linejoin:miter;stroke-miterlimit:0;stroke-opacity:0.000297397"
         d="M 15.901188,5.9676378 H 17.90244 V 11.661761 H 15.901188 Z" /><path
         id="rect1"
         style="stroke-width:0;stroke-dasharray:none;stroke:#0089ff;stroke-opacity:1;fill:#0089ff;fill-opacity:1"
         d="M 4.9999068 10.999833 C 3.8919079 10.999833 3.0001471 11.891963 3.0001471 12.999962 L 3.0001471 20.000061 C 3.0001471 21.10806 3.8919079 21.999839 4.9999068 21.999839 L 19.000012 21.999839 C 20.108011 21.999839 21.000129 21.10806 21.000129 20.000061 L 21.000129 12.999962 C 21.000129 11.891963 20.108011 10.999833 19.000012 10.999833 L 4.9999068 10.999833 z M 15.916036 12.957443 L 16.781551 12.957443 L 16.781551 14.464568 C 17.138043 14.314335 17.501411 14.239325 17.871484 14.239325 C 18.509775 14.239325 18.995338 14.381088 19.328064 14.664862 C 19.66079 14.945297 19.826932 15.414502 19.826932 16.072191 L 19.826932 19.367203 L 18.961417 19.367203 L 18.961417 16.072191 C 18.951229 15.694937 18.854223 15.426344 18.670888 15.266095 C 18.490944 15.105846 18.224582 15.025391 17.871484 15.025391 C 17.498016 15.025391 17.134648 15.114103 16.781551 15.291044 L 16.781551 19.367203 L 15.916036 19.367203 L 15.916036 12.957443 z M 6.2159866 14.159207 C 6.8339065 14.159207 7.3278646 14.331185 7.6979386 14.675052 C 8.0680108 15.015582 8.2532686 15.47776 8.2532686 16.062 L 8.2532686 16.407771 C 8.2532686 16.704899 8.1902063 16.911834 8.064585 17.028682 C 7.9389642 17.142192 7.7133324 17.199108 7.3873969 17.199108 L 5.0853147 17.199108 L 5.0853147 17.279226 C 5.0887124 17.312608 5.099074 17.377429 5.1160472 17.474249 C 5.1364182 17.567727 5.1619647 17.658019 5.1925213 17.744821 C 5.2230779 17.831622 5.2722057 17.928239 5.340109 18.035072 C 5.4114075 18.141904 5.4928705 18.233778 5.5845399 18.310564 C 5.6796046 18.38735 5.8034069 18.452522 5.9561893 18.505938 C 6.1089718 18.556016 6.2786864 18.581137 6.4654205 18.581137 L 7.8455263 18.581137 L 7.8455263 19.327144 C 7.4924292 19.38056 7.0324134 19.407261 6.4654205 19.407261 C 5.7592261 19.407261 5.2009543 19.175206 4.7901393 18.711152 C 4.3827195 18.243759 4.1790619 17.608022 4.1790619 16.803439 C 4.1790619 15.992179 4.3639615 15.349416 4.7340345 14.875346 C 5.1041076 14.397938 5.5980665 14.159207 6.2159866 14.159207 z M 12.705914 14.199266 C 12.91302 14.199266 13.109889 14.20594 13.296623 14.219295 C 13.486752 14.232646 13.624131 14.245995 13.709011 14.259354 L 13.836229 14.279384 L 13.836229 15.025391 L 12.705914 15.025391 C 12.138922 15.025391 11.690518 15.18595 11.361187 15.506448 C 11.035251 15.823608 10.872325 16.255922 10.872325 16.803439 C 10.872325 17.441097 11.028462 17.896599 11.340818 18.170358 C 11.653173 18.444117 12.108365 18.581137 12.705914 18.581137 L 13.836229 18.581137 L 13.836229 19.327144 C 13.54764 19.38056 13.171052 19.407261 12.705914 19.407261 C 12.373188 19.407261 12.072525 19.38056 11.804307 19.327144 C 11.53609 19.270389 11.288485 19.178515 11.061008 19.051652 C 10.833532 18.924788 10.643095 18.762999 10.490312 18.566027 C 10.33753 18.365715 10.218908 18.118729 10.134029 17.824939 C 10.04915 17.527811 10.006811 17.187369 10.006811 16.803439 C 10.006811 16.005533 10.252807 15.372607 10.745106 14.905215 C 11.2408 14.434483 11.89447 14.199266 12.705914 14.199266 z M 6.2159866 14.945273 C 6.0632041 14.945273 5.9238594 14.971975 5.7982383 15.025391 C 5.6726172 15.078807 5.5707884 15.149074 5.4926996 15.235875 C 5.418006 15.322676 5.3520853 15.417712 5.2943675 15.521206 C 5.2400449 15.624701 5.1993134 15.728344 5.172152 15.831838 C 5.1483857 15.935332 5.1280203 16.030367 5.1110443 16.117169 C 5.0974637 16.203971 5.0887101 16.274237 5.0853147 16.327653 L 5.0853147 16.407771 L 7.3873969 16.407771 L 7.3873969 16.062 C 7.3873969 15.718133 7.2819957 15.446377 7.0714949 15.246066 C 6.86439 15.045755 6.5792695 14.945273 6.2159866 14.945273 z " /><rect
         width="18"
         height="11"
         x="3"
         y="11"
         rx="2"
         ry="2"
         id="rect9"
         style="display:inline;fill:none;stroke:#0089ff;stroke-width:2;stroke-linecap:round;stroke-linejoin:round;stroke-opacity:1" /><path
         d="M 7,11 V 7 a 5,5 0 0 1 9.9,-1"
         id="path1"
         style="fill:none;fill-opacity:1;stroke:#0089ff;stroke-opacity:1" /></g></g></svg>
