<?xml version="1.0" encoding="UTF-8" standalone="no"?>
<!-- Created with Inkscape (http://www.inkscape.org/) -->

<svg
   width="128"
   height="128"
   viewBox="0 0 33.866666 33.866666"
   version="1.1"
   id="svg1"
   xml:space="preserve"
   sodipodi:docname="ech-active.svg"
   inkscape:export-filename="ech-active.png"
   inkscape:export-xdpi="96"
   inkscape:export-ydpi="96"
   inkscape:version="1.3.2 (091e20ef0f, 2023-11-25, custom)"
   xmlns:inkscape="http://www.inkscape.org/namespaces/inkscape"
   xmlns:sodipodi="http://sodipodi.sourceforge.net/DTD/sodipodi-0.dtd"
   xmlns="http://www.w3.org/2000/svg"
   xmlns:svg="http://www.w3.org/2000/svg"><sodipodi:namedview
     id="namedview1"
     pagecolor="#505050"
     bordercolor="#eeeeee"
     borderopacity="1"
     inkscape:showpageshadow="0"
     inkscape:pageopacity="0"
     inkscape:pagecheckerboard="0"
     inkscape:deskcolor="#505050"
     inkscape:zoom="6.0351563"
     inkscape:cx="34.878964"
     inkscape:cy="98.754693"
     inkscape:window-width="3780"
     inkscape:window-height="2100"
     inkscape:window-x="60"
     inkscape:window-y="60"
     inkscape:window-maximized="1"
     inkscape:current-layer="svg1" /><defs
     id="defs1"><rect
       x="-33.197676"
       y="-0.7340448"
       width="92.196168"
       height="48.263845"
       id="rect4" /></defs><g
     id="layer1"
     style="stroke:#189e00;stroke-opacity:1"><g
       style="fill:none;fill-opacity:1;stroke:#189e00;stroke-width:2;stroke-linecap:round;stroke-linejoin:round;stroke-opacity:1"
       id="g6"
       transform="matrix(1.4472807,0,0,1.4701957,-0.43868284,-0.93968226)"><path
         id="rect8"
         style="display:inline;fill:#189f00;fill-opacity:1;stroke:#189e00;stroke-width:0;stroke-linecap:round;stroke-linejoin:round;stroke-opacity:1;stroke-dasharray:none"
         d="M 4.9998599 11.00013 C 3.891861 11.00013 2.9999735 11.89213 2.9999735 13.000129 L 2.9999735 20.000123 C 2.9999735 21.108122 3.891861 22.000121 4.9998599 22.000121 L 19.000136 22.000121 C 20.108135 22.000121 21.000022 21.108122 21.000022 20.000123 L 21.000022 13.000129 C 21.000022 11.89213 20.108135 11.00013 19.000136 11.00013 L 4.9998599 11.00013 z M 15.913005 12.957949 L 16.777802 12.957949 L 16.777802 14.465505 C 17.133998 14.315229 17.497065 14.240198 17.866831 14.240198 C 18.504593 14.240198 18.989753 14.382001 19.322203 14.665857 C 19.654653 14.946372 19.820657 15.415711 19.820657 16.073588 L 19.820657 19.369543 L 18.955861 19.369543 L 18.955861 16.073588 C 18.945681 15.696227 18.848756 15.427557 18.665572 15.267262 C 18.485778 15.106967 18.219636 15.026489 17.866831 15.026489 C 17.493673 15.026489 17.130606 15.115226 16.777802 15.292218 L 16.777802 19.369543 L 15.913005 19.369543 L 15.913005 12.957949 z M 6.221001 14.160057 C 6.8384085 14.160057 7.3319568 14.332084 7.7017239 14.67605 C 8.0714892 15.016677 8.2565933 15.478987 8.2565933 16.063395 L 8.2565933 16.409265 C 8.2565933 16.706478 8.1935834 16.913472 8.0680663 17.030354 C 7.9425496 17.143896 7.7171049 17.200828 7.3914398 17.200828 L 5.091267 17.200828 L 5.091267 17.280969 C 5.0946618 17.314361 5.1050149 17.3792 5.121974 17.476048 C 5.142328 17.569553 5.1678534 17.659871 5.1983846 17.746698 C 5.2289159 17.833524 5.278003 17.930168 5.3458499 18.037031 C 5.4170893 18.143895 5.4984847 18.235794 5.5900781 18.312602 C 5.6850639 18.38941 5.8087635 18.454601 5.9614193 18.508033 C 6.114075 18.558125 6.2836488 18.583252 6.4702281 18.583252 L 7.8491892 18.583252 L 7.8491892 19.329473 C 7.4963849 19.382905 7.0367507 19.409614 6.4702281 19.409614 C 5.7646194 19.409614 5.2068107 19.177492 4.7963364 18.713305 C 4.3892545 18.245778 4.1857658 17.60986 4.1857658 16.805046 C 4.1857658 15.993554 4.3705121 15.350607 4.7402782 14.876401 C 5.1100442 14.398856 5.6035934 14.160057 6.221001 14.160057 z M 12.705546 14.200128 C 12.91248 14.200128 13.109185 14.206804 13.295764 14.220163 C 13.485736 14.233517 13.623002 14.24687 13.70781 14.260233 L 13.834923 14.280268 L 13.834923 15.026489 L 12.705546 15.026489 C 12.139024 15.026489 11.690992 15.187094 11.361934 15.507684 C 11.036268 15.824934 10.873477 16.257372 10.873477 16.805046 C 10.873477 17.442886 11.029485 17.898519 11.341581 18.172356 C 11.653678 18.446193 12.108493 18.583252 12.705546 18.583252 L 13.834923 18.583252 L 13.834923 19.329473 C 13.546573 19.382905 13.170298 19.409614 12.705546 19.409614 C 12.373096 19.409614 12.072682 19.382905 11.804687 19.329473 C 11.536691 19.272702 11.289292 19.180802 11.062004 19.053902 C 10.834717 18.927002 10.644437 18.765167 10.491781 18.568138 C 10.339126 18.36777 10.220602 18.120712 10.135794 17.826838 C 10.050985 17.529625 10.008681 17.189086 10.008681 16.805046 C 10.008681 16.006912 10.254474 15.373805 10.746364 14.906278 C 11.241647 14.435412 11.894774 14.200127 12.705546 14.200128 z M 6.221001 14.946348 C 6.0683453 14.946348 5.9291162 14.973058 5.8035993 15.026489 C 5.6780824 15.079921 5.576338 15.150207 5.498314 15.237034 C 5.4236823 15.32386 5.3578163 15.418922 5.3001464 15.522446 C 5.2458688 15.62597 5.2051711 15.729643 5.1780323 15.833167 C 5.1542857 15.93669 5.1339371 16.031753 5.1169752 16.11858 C 5.1034059 16.205406 5.0946595 16.275693 5.091267 16.329124 L 5.091267 16.409265 L 7.3914398 16.409265 L 7.3914398 16.063395 C 7.3914398 15.719429 7.286126 15.447596 7.0757998 15.247227 C 6.8688667 15.046859 6.5839826 14.946348 6.221001 14.946348 z " /><rect
         width="18"
         height="11"
         x="3"
         y="11"
         rx="2"
         ry="2"
         id="rect1-6"
         style="display:inline;fill:none;fill-opacity:1;stroke-width:1.9997351;stroke-dasharray:none;stroke:#189e00;stroke-opacity:1" /><path
         d="M 7,11 V 7 a 5,5 0 0 1 10,0 v 4"
         id="path1-3"
         style="stroke:#189e00;stroke-opacity:1" /></g></g></svg>
