<?xml version="1.0" encoding="UTF-8" standalone="no"?>
<!-- Created with Inkscape (http://www.inkscape.org/) -->

<svg
   width="128"
   height="128"
   viewBox="0 0 33.866666 33.866666"
   version="1.1"
   id="svg1"
   xmlns="http://www.w3.org/2000/svg"
   xmlns:svg="http://www.w3.org/2000/svg">
  <defs
     id="defs1">
    <rect
       x="-33.197676"
       y="-0.7340448"
       width="92.196168"
       height="48.263845"
       id="rect4" />
  </defs>
  <g
     id="layer1">
    <path
       d="m 7.9431386,22.258062 q -1.7197883,0 -2.7202421,-1.149281 -0.9921855,-1.15755 -0.9921855,-3.150189 0,-2.009176 0.9012352,-3.183262 0.9012352,-1.182355 2.4060499,-1.182355 1.5048148,0 2.40605,0.851626 0.9012349,0.843358 0.9012349,2.290295 v 0.570507 q 0,0.735871 -0.305924,1.025258 -0.305924,0.281119 -1.0996719,0.281119 H 5.7024529 q 0,0.04961 0,0.132292 0.00827,0.08268 0.049609,0.32246 0.049609,0.23151 0.1240232,0.446484 0.074414,0.214973 0.2397782,0.479556 0.1736325,0.264583 0.3968742,0.454752 0.23151,0.190169 0.6035796,0.32246 0.3720695,0.124023 0.8268213,0.124023 h 2.2406856 v 1.231964 q -0.8598939,0.132291 -2.2406854,0.132291 z m 1.4965465,-4.952659 v -0.570507 q 0,-0.851626 -0.5126292,-1.347719 -0.504361,-0.496092 -1.3890598,-0.496092 -0.3720696,0 -0.6779934,0.132291 -0.3059239,0.132291 -0.4960928,0.347265 -0.1819007,0.214973 -0.3224603,0.471288 -0.1322914,0.256315 -0.1984371,0.512629 -0.057878,0.256315 -0.099219,0.471288 -0.033073,0.214974 -0.041341,0.347265 v 0.132292 z m 8.6346619,-3.646282 q 0.504361,0 0.959113,0.03307 0.46302,0.03307 0.669725,0.06615 l 0.206705,0.03307 v 1.231964 h -1.835543 q -1.380791,0 -2.182808,0.793748 -0.793749,0.785481 -0.793749,2.141468 0,1.579228 0.760676,2.257222 0.760676,0.677993 2.215881,0.677993 h 1.835543 v 1.231965 q -0.702798,0.132291 -1.835543,0.132291 -0.810285,0 -1.463474,-0.132291 -0.653188,-0.14056 -1.207159,-0.454752 -0.55397,-0.314192 -0.92604,-0.802016 -0.372069,-0.496093 -0.578774,-1.223696 -0.206706,-0.735871 -0.206706,-1.686715 0,-1.976103 1.198891,-3.133653 1.207159,-1.165818 3.183262,-1.165818 z m 5.211622,-2.050517 h 1.405596 v 2.488732 q 0.868162,-0.372069 1.769397,-0.372069 1.554424,0 2.364709,0.702798 0.810285,0.69453 0.810285,2.323368 v 5.440484 H 28.23036 v -5.440484 q -0.02481,-0.934309 -0.471288,-1.331183 -0.438215,-0.396874 -1.29811,-0.396874 -0.909503,0 -1.769397,0.438215 v 6.730326 h -1.405596 z"
       id="text1"
       style="font-size:16.9333px;line-height:0.5;font-family:'Agave Nerd Font';-inkscape-font-specification:'Agave Nerd Font';text-align:center;letter-spacing:0.994833px;text-anchor:middle;fill:#f27e0b;stroke:#0b0b0b;stroke-width:0.846667;stroke-linecap:square;stroke-opacity:0"
       aria-label="ech" />
  </g>
</svg>
