<?xml version="1.0" encoding="UTF-8" standalone="no"?>
<!-- Created with Inkscape (http://www.inkscape.org/) -->

<svg
   width="128"
   height="128"
   viewBox="0 0 33.866666 33.866666"
   version="1.1"
   id="svg1"
   xml:space="preserve"
   xmlns="http://www.w3.org/2000/svg"
   xmlns:svg="http://www.w3.org/2000/svg"><defs
     id="defs1"><rect
       x="-33.197676"
       y="-0.7340448"
       width="92.196168"
       height="48.263845"
       id="rect4" /></defs><g
     id="layer1"><g
       style="fill:none;stroke:#2a2a2a;stroke-width:2;stroke-linecap:round;stroke-linejoin:round;stroke-opacity:1;fill-opacity:1"
       id="g5"
       transform="matrix(1.4473854,0,0,1.4473854,-0.43529147,-0.43158737)"><rect
         width="18"
         height="11"
         x="3"
         y="11"
         rx="2"
         ry="2"
         id="rect1"
         style="fill:#292929;fill-opacity:1;stroke:#2a2a2a;stroke-opacity:1" /><path
         d="M 7,11 V 7 a 5,5 0 0 1 9.9,-1"
         id="path1"
         style="stroke:#2a2a2a;stroke-opacity:1;fill:none;fill-opacity:1" /></g><path
       d="m 8.9257308,28.122333 q -1.5318223,0 -2.4229305,-1.023669 -0.8837436,-1.031035 -0.8837436,-2.805886 0,-1.789581 0.8027338,-2.835344 0.8027338,-1.053128 2.1430783,-1.053128 1.3403442,0 2.1430802,0.758546 0.802732,0.751183 0.802732,2.039975 v 0.508153 q 0,0.655443 -0.272488,0.913201 -0.272487,0.250394 -0.979481,0.250394 H 6.9299431 q 0,0.04419 0,0.117833 0.00737,0.07364 0.044187,0.287217 0.044187,0.206206 0.1104679,0.397685 0.066281,0.191477 0.2135714,0.427142 0.1546552,0.235665 0.3534974,0.40505 0.2062069,0.169384 0.5376108,0.287216 0.3314038,0.110468 0.736453,0.110468 h 1.9957884 v 1.097315 q -0.765911,0.117832 -1.9957882,0.117832 z M 10.258712,23.71098 v -0.508153 q 0,-0.758547 -0.456602,-1.200419 -0.449236,-0.441871 -1.2372412,-0.441871 -0.3314039,0 -0.6038915,0.117832 -0.2724876,0.117833 -0.4418718,0.309311 -0.1620197,0.191477 -0.2872167,0.419778 -0.1178324,0.228301 -0.1767487,0.456601 -0.051552,0.2283 -0.088375,0.419778 -0.029458,0.191478 -0.036823,0.30931 v 0.117833 z m 7.690927,-3.247758 q 0.449237,0 0.854286,0.02946 0.412414,0.02945 0.596527,0.05892 l 0.184113,0.02945 v 1.097315 h -1.634926 q -1.229876,0 -1.944236,0.706995 -0.706995,0.699631 -0.706995,1.907414 0,1.406625 0.677537,2.010517 0.677537,0.603891 1.973694,0.603891 h 1.634926 V 28.0045 q -0.625985,0.117832 -1.634926,0.117832 -0.721724,0 -1.303522,-0.117832 -0.581797,-0.125197 -1.075221,-0.405049 -0.493424,-0.279853 -0.824828,-0.714359 -0.331403,-0.441872 -0.515516,-1.089951 -0.184114,-0.655443 -0.184114,-1.502364 0,-1.760123 1.067857,-2.791157 1.075221,-1.038399 2.835344,-1.038398 z m 4.642013,-1.826404 h 1.25197 v 2.216724 q 0.773275,-0.331403 1.576009,-0.331403 1.384531,0 2.106255,0.625985 0.721724,0.61862 0.721724,2.069433 v 4.84586 h -1.25197 v -4.84586 q -0.0221,-0.832193 -0.419778,-1.18569 -0.390319,-0.353498 -1.156231,-0.353498 -0.810098,0 -1.576009,0.39032 v 5.994728 h -1.25197 z"
       id="text1"
       style="font-size:16.9333px;line-height:0.5;font-family:'Agave Nerd Font';-inkscape-font-specification:'Agave Nerd Font';text-align:center;letter-spacing:0.994833px;text-anchor:middle;fill:#d40000;stroke:#ff0000;stroke-width:0.75413;stroke-linecap:square;stroke-opacity:0;fill-opacity:1"
       aria-label="ech" /></g></svg>
